<svg width="180" height="56" viewBox="0 0 180 56" fill="none" xmlns="http://www.w3.org/2000/svg">
<g clip-path="url(#clip0_16_2619)">
<g clip-path="url(#clip1_16_2619)">
<g clip-path="url(#clip2_16_2619)">
<mask id="mask0_16_2619" style="mask-type:luminance" maskUnits="userSpaceOnUse" x="0" y="5" width="66" height="51">
<path d="M65.305 5.02271H0.00947571V55.25H65.305V5.02271Z" fill="white"/>
</mask>
<g mask="url(#mask0_16_2619)">
<path opacity="0.8" d="M48.9366 38.4578C55.1534 39.1017 60.9414 32.4 61.8643 23.4891C62.7873 14.5782 58.4957 6.83249 52.2788 6.18859C46.0619 5.54469 40.2739 12.2464 39.351 21.1573C38.4281 30.0682 42.7197 37.8139 48.9366 38.4578Z" fill="#FDC040"/>
<path d="M39.6182 42.7295C45.5331 40.71 47.9816 32.2001 45.087 23.7221C42.1925 15.244 35.051 10.0083 29.1361 12.0278C23.2212 14.0472 20.7727 22.5571 23.6673 31.0352C26.5619 39.5132 33.7033 44.7489 39.6182 42.7295Z" fill="#FDC040"/>
<path d="M22.6117 32.6477H62.8529C63.1741 32.7873 63.9128 33.3174 64.2981 34.3219C64.7799 35.5776 66.142 53.9943 43.1212 50.2272C25.0079 50.2272 20.7813 49.6691 20.9419 49.3901C24.286 48.553 24.7045 45.2045 25.1231 42.6932C25.5417 40.1818 22.6117 32.6477 22.6117 32.6477Z" fill="#81B13D"/>
<path d="M52.8461 15.4302C52.3177 15.4302 51.8896 15.8584 51.8896 16.3867V16.5394C51.8896 17.0678 52.3177 17.4959 52.8461 17.4959C53.3745 17.4959 53.8026 17.0678 53.8026 16.5394V16.3867C53.8026 15.8583 53.3745 15.4302 52.8461 15.4302Z" fill="#253D4E"/>
<path d="M55.3304 19.6973C54.8021 19.6973 54.3739 20.1254 54.3739 20.6537V20.8065C54.3739 21.3348 54.8021 21.7629 55.3304 21.7629C55.8588 21.7629 56.2869 21.3348 56.2869 20.8065V20.6537C56.2869 20.1254 55.8588 19.6973 55.3304 19.6973Z" fill="#253D4E"/>
<path d="M34.3874 18.7991L34.3166 18.6636C34.0722 18.1952 33.4941 18.0137 33.0262 18.2583C32.5578 18.5028 32.3764 19.0805 32.6209 19.5488L32.6917 19.6843C32.8621 20.0113 33.1954 20.1986 33.5403 20.1986C33.6895 20.1986 33.8407 20.1636 33.9821 20.0896C34.4504 19.8451 34.6319 19.2674 34.3874 18.7991Z" fill="#253D4E"/>
<path d="M38.5647 21.4317L38.4939 21.2962C38.2494 20.8277 37.6715 20.6462 37.2034 20.8908C36.7351 21.1354 36.5537 21.7131 36.7981 22.1814L36.8689 22.317C37.0394 22.6439 37.3725 22.8311 37.7175 22.8311C37.8667 22.8311 38.018 22.7962 38.1593 22.7222C38.6276 22.4778 38.8091 21.9 38.5647 21.4317Z" fill="#253D4E"/>
<path d="M32.6132 40.4612L29.7682 37.6161C29.3946 37.2426 28.7889 37.2425 28.4157 37.616C28.042 37.9896 28.042 38.5952 28.4155 38.9686L31.2605 41.8137C31.4473 42.0005 31.6919 42.0939 31.9368 42.0939C32.1815 42.0939 32.4263 42.0005 32.6131 41.8139C32.9867 41.4403 32.9867 40.8347 32.6132 40.4612Z" fill="#253D4E"/>
<path d="M41.0664 38.6788C40.7602 38.2485 40.1632 38.1477 39.7325 38.4543L29.8036 45.5231C29.3733 45.8294 29.2728 46.4267 29.5792 46.857C29.7657 47.1191 30.06 47.2588 30.3591 47.2588C30.5509 47.2588 30.7448 47.2012 30.913 47.0814L40.8419 40.0126C41.2722 39.7063 41.3727 39.1091 41.0664 38.6788Z" fill="#253D4E"/>
<path d="M44.5766 40.1216C44.2705 39.6913 43.6733 39.5906 43.2427 39.8972L39.4314 42.6105C39.0011 42.9171 38.9007 43.5142 39.207 43.9445C39.3936 44.2067 39.6879 44.3464 39.987 44.3464C40.1788 44.3464 40.3725 44.2887 40.5409 44.1688L44.3521 41.4555C44.7825 41.1492 44.8829 40.552 44.5766 40.1216Z" fill="#253D4E"/>
<path d="M65.1244 35.7818C64.8152 35.3533 64.2176 35.2566 63.789 35.5654L63.4704 35.7951C63.4717 35.713 63.4736 35.6312 63.4736 35.549C63.4736 34.6365 63.1185 33.7779 62.4719 33.1296C61.8255 32.4848 60.9669 32.1297 60.0545 32.1297H59.7714C60.8211 30.1016 61.354 27.6593 61.354 24.84C61.354 19.3109 59.2814 13.2672 56.0739 9.44325C55.7343 9.03842 55.1311 8.98543 54.7264 9.32513C54.3217 9.66467 54.2688 10.268 54.6083 10.6726C57.5441 14.1726 59.4412 19.7337 59.4412 24.84C59.4412 27.7828 58.8086 30.2322 57.561 32.1297H55.6673L56.5087 31.5307C56.9392 31.2244 57.0395 30.6271 56.7332 30.1968C56.427 29.7665 55.8301 29.6658 55.3993 29.9724L52.3692 32.1297H46.6798C47.2532 29.2254 46.656 25.9808 44.9232 22.6617C43.6828 20.2866 41.9213 17.9883 39.8949 16.0412C41.9821 10.7621 45.4361 7.38489 48.8017 7.38489C49.8181 7.38489 50.8424 7.68063 51.8459 8.26421C52.3027 8.52945 52.8882 8.3745 53.1537 7.91797C53.4191 7.46128 53.2641 6.87578 52.8075 6.61027C51.508 5.8549 50.1602 5.47192 48.8017 5.47192C44.73 5.47192 40.8148 8.97061 38.3803 14.6929C37.5512 14.0107 36.6919 13.3903 35.8165 12.8497C31.6961 10.305 27.7944 9.75583 24.8304 11.3032C22.0966 12.7319 20.3455 15.8999 19.8994 20.2235C19.8451 20.749 20.2271 21.219 20.7525 21.273C21.2792 21.3281 21.748 20.9451 21.802 20.4198C22.1801 16.7558 23.5702 14.1202 25.7159 12.9987C30.9401 10.2713 39.5678 16.5394 43.2274 23.5472C44.8551 26.665 45.3559 29.5482 44.7222 32.1298H33.9983C33.9956 32.1298 33.9931 32.1298 33.9904 32.1298H29.0891L27.4839 30.5246C27.1102 30.1512 26.5047 30.1512 26.1312 30.5246C25.7576 30.8982 25.7576 31.5038 26.1312 31.8773L26.3836 32.1297H23.7577C22.6923 29.7083 21.9919 26.9277 21.7747 24.2303C21.7323 23.7039 21.2717 23.3102 20.7446 23.3537C20.2181 23.3961 19.8256 23.8571 19.868 24.3838C20.0444 26.5758 20.4968 28.7569 21.1952 30.8154C18.4691 28.4924 14.9083 27.244 11.2421 27.4431C10.9004 27.4617 10.5945 27.6615 10.4404 27.967C9.00199 30.8151 8.59758 34.0299 9.19411 37.0744C9.19972 37.1667 9.21797 37.2554 9.24786 37.3386C9.43529 38.2072 9.70568 39.0603 10.0566 39.8857C5.96264 40.5207 2.32712 42.9338 0.147997 46.5283C-0.0293987 46.8209 -0.0367955 47.186 0.128357 47.4858C1.66957 50.2829 4.09891 52.4319 6.95292 53.6563C7.02906 53.7009 7.10851 53.7347 7.19025 53.7564C8.76643 54.399 10.466 54.7621 12.2139 54.7982C12.3096 54.8002 12.4044 54.8012 12.4999 54.8012C13.1802 54.8012 13.8543 54.7498 14.5183 54.6532C14.5808 54.6495 14.6429 54.6414 14.7032 54.6258C17.5145 54.1785 20.1282 52.8876 22.1916 50.9479C22.2384 50.9549 22.2859 50.9598 22.3346 50.9598H26.6265C27.1548 50.9598 27.583 50.5317 27.583 50.0033C27.583 49.475 27.1548 49.0468 26.6265 49.0468H23.8802C24.1312 48.7066 24.369 48.3545 24.5904 47.9892C24.5972 47.978 24.6027 47.9662 24.6089 47.9549C24.6146 47.9445 24.6216 47.9352 24.6269 47.9245C26.8548 43.5108 26.6026 38.2173 23.985 34.0426H28.2965L30.9006 36.6468C31.0873 36.8334 31.3322 36.9268 31.577 36.9268C31.8217 36.9268 32.0665 36.8334 32.2534 36.6468C32.6269 36.2731 32.6269 35.6676 32.2534 35.294L31.002 34.0426H33.5982L37.1492 37.5936C37.336 37.7804 37.5809 37.8737 37.8256 37.8737C38.0704 37.8737 38.3152 37.7804 38.5021 37.5936C38.8756 37.22 38.8756 36.6144 38.5021 36.2409L36.3039 34.0428H45.4407L45.4439 34.0431L45.4471 34.0428H49.6826L47.5944 35.5295C47.1639 35.8358 47.0635 36.433 47.3699 36.8632C47.5564 37.1255 47.8508 37.2651 48.1499 37.2651C48.3417 37.2651 48.5354 37.2075 48.7037 37.0876L52.9806 34.0426H58.0594L58.0611 34.0428L58.0632 34.0426H60.0552C60.4575 34.0426 60.8364 34.1994 61.12 34.4821C61.4045 34.7674 61.5612 35.1463 61.5612 35.5488C61.5612 36.1246 61.5248 36.692 61.4545 37.2491L54.4314 42.3131C54.003 42.622 53.9061 43.2198 54.215 43.6484C54.4021 43.9077 54.6947 44.0456 54.9917 44.0456C55.1855 44.0456 55.3811 43.9868 55.5504 43.8648L60.7707 40.1008C59.7278 43.0031 57.7173 45.4477 55.13 47.0441L44.4634 36.3774C44.0897 36.0039 43.4842 36.0039 43.1106 36.3774C42.7371 36.7511 42.7371 37.3566 43.1106 37.7301L53.3487 47.9682C51.9623 48.5604 50.4573 48.9266 48.8803 49.0212L44.7103 44.8515C44.337 44.478 43.7313 44.4779 43.3578 44.8516C42.9843 45.2251 42.9843 45.8307 43.3579 46.2042L46.2004 49.0465H36.8366L35.302 47.512C34.9284 47.1386 34.3228 47.1386 33.9493 47.512C33.5758 47.8856 33.5758 48.4912 33.9493 48.8647L34.1311 49.0465H30.6114C30.083 49.0465 29.6549 49.4747 29.6549 50.003C29.6549 50.5314 30.083 50.9595 30.6114 50.9595H36.0433L38.2005 53.1169C38.3874 53.3035 38.6322 53.3969 38.877 53.3969C39.1217 53.3969 39.3666 53.3035 39.5534 53.1169C39.9269 52.7432 39.9269 52.1377 39.5534 51.7641L38.7488 50.9595H48.0615C50.4728 50.9595 52.7563 50.4023 54.7908 49.4109L55.5942 50.2144C55.7811 50.4011 56.0259 50.4944 56.2706 50.4944C56.5154 50.4944 56.7603 50.4011 56.9471 50.2144C57.3206 49.8407 57.3206 49.2352 56.9471 48.8616L56.514 48.4286C59.9625 46.1582 62.4495 42.5423 63.221 38.3335L64.908 37.1171C65.3363 36.8082 65.4333 36.2105 65.1244 35.7818ZM22.2433 34.8671C22.3506 35.0313 22.4521 35.1982 22.5508 35.3665L20.1297 40.1706L17.3652 35.9405L19.2999 31.7502C20.4426 32.5968 21.4449 33.6454 22.2433 34.8671ZM19.0823 42.0646L13.8092 42.3301C13.4538 41.9201 13.1231 41.4847 12.8221 41.0241C12.1932 40.0616 11.7133 39.0266 11.3827 37.953L16.3424 37.8721L19.0823 42.0646ZM17.665 30.7275L16.1304 34.0509L13.0804 29.3838C14.6932 29.527 16.2505 29.99 17.665 30.7275ZM11.4784 30.4292L15.1054 35.979L10.958 36.0467C10.6956 34.1742 10.8662 32.2473 11.4784 30.4292ZM10.984 41.695C11.061 41.8209 11.1397 41.9462 11.2207 42.0705C11.6457 42.7207 12.1209 43.3279 12.6383 43.8905C12.676 43.9396 12.7185 43.9847 12.7648 44.0257C13.6239 44.9356 14.5957 45.7225 15.6507 46.3701L10.6183 46.2666L8.2457 42.2984C9.1243 41.995 10.0421 41.7908 10.984 41.695ZM6.47774 43.0691L8.36162 46.2201L2.78495 46.1055C3.8126 44.8503 5.06993 43.8217 6.47774 43.0691ZM7.09154 51.6166C5.3973 50.7768 3.90251 49.5489 2.74707 48.0179L9.37527 48.1542L7.09154 51.6166ZM13.8879 52.8073C13.3488 52.8697 12.8028 52.8966 12.2527 52.8857C11.1033 52.8619 9.97783 52.6742 8.90514 52.3414L11.6362 48.2006L16.6435 48.3036L13.8879 52.8073ZM16.4961 52.2098L18.8582 48.3492L21.7616 48.4089C21.8213 48.4144 21.8813 48.4184 21.9411 48.423C20.5018 50.1704 18.6087 51.4755 16.4961 52.2098ZM21.8734 46.498C19.6541 46.2805 17.5442 45.4576 15.7723 44.1467L20.2939 43.9189L21.9808 46.5002L21.8734 46.498ZM23.5876 45.4621L21.3391 42.0214L23.5708 37.5929C24.4346 40.1281 24.4489 42.9029 23.5876 45.4621Z" fill="#253D4E"/>
<path d="M55.7376 37.4214C55.4285 36.9929 54.8307 36.8963 54.4023 37.2051L51.0318 39.6355C50.6034 39.9444 50.5065 40.5421 50.8155 40.9707C51.0025 41.23 51.2952 41.3679 51.592 41.3679C51.786 41.3679 51.9816 41.3091 52.1507 41.1871L55.5213 38.7567C55.9497 38.4478 56.0466 37.85 55.7376 37.4214Z" fill="#253D4E"/>
</g>
<path d="M79.5639 51.0644L79.5547 46.8306L77.4561 50.3344H76.9269L74.8282 46.8853V51.0644H73.6967V44.6772H74.6731L77.2097 48.911L79.7007 44.6772H80.6771L80.6862 51.0644H79.5639ZM87.4669 49.5862H84.2733L83.6433 51.0644H82.4206L85.2945 44.6772H86.4632L89.3462 51.0644H88.1056L87.4669 49.5862ZM87.0743 48.6555L85.8697 45.8634L84.6742 48.6555H87.0743ZM95.2504 51.0644L93.9454 49.1939C93.8901 49.2 93.8081 49.203 93.6992 49.203H92.2569V51.0644H91.0707V44.6772H93.6992C94.2526 44.6772 94.7331 44.7684 95.1408 44.9509C95.5543 45.1334 95.8707 45.395 96.0892 45.7356C96.3086 46.0763 96.4182 46.4808 96.4182 46.9492C96.4182 47.4298 96.2993 47.8434 96.0624 48.1902C95.8306 48.5369 95.4965 48.7954 95.0587 48.9658L96.5279 51.0644H95.2504ZM95.2228 46.9492C95.2228 46.5416 95.0889 46.2284 94.821 46.0094C94.5531 45.7904 94.1613 45.6809 93.644 45.6809H92.2569V48.2267H93.644C94.1613 48.2267 94.5531 48.1172 94.821 47.8982C95.0889 47.6731 95.2228 47.3568 95.2228 46.9492ZM99.8638 45.6809H97.7476V44.6772H103.167V45.6809H101.05V51.0644H99.8638V45.6809ZM113.195 51.1648L112.391 50.3892C111.795 50.9002 111.08 51.1557 110.247 51.1557C109.803 51.1557 109.404 51.0827 109.052 50.9367C108.699 50.7907 108.423 50.5899 108.222 50.3344C108.021 50.0728 107.92 49.7778 107.92 49.4494C107.92 49.054 108.036 48.7072 108.268 48.4092C108.499 48.105 108.875 47.8069 109.399 47.5149C109.143 47.2594 108.961 47.0222 108.851 46.8032C108.741 46.5781 108.687 46.347 108.687 46.1097C108.687 45.6596 108.854 45.2977 109.188 45.0239C109.529 44.7441 109.98 44.6042 110.54 44.6042C111.056 44.6042 111.47 44.7319 111.78 44.9874C112.091 45.2368 112.246 45.5775 112.246 46.0094C112.246 46.3379 112.142 46.6299 111.935 46.8853C111.735 47.1408 111.404 47.3993 110.941 47.6609L112.318 48.9749C112.471 48.6768 112.59 48.3179 112.674 47.8982L113.596 48.1993C113.475 48.765 113.283 49.2516 113.021 49.6592L113.824 50.4257L113.195 51.1648ZM110.54 45.4163C110.29 45.4163 110.093 45.4801 109.946 45.6079C109.8 45.7295 109.728 45.8908 109.728 46.0915C109.728 46.2375 109.767 46.3774 109.846 46.5112C109.925 46.639 110.077 46.8154 110.302 47.0405C110.667 46.8397 110.92 46.6663 111.059 46.5204C111.205 46.3683 111.279 46.204 111.279 46.0276C111.279 45.839 111.212 45.69 111.078 45.5805C110.95 45.471 110.771 45.4163 110.54 45.4163ZM110.329 50.225C110.859 50.225 111.321 50.0637 111.717 49.7413L110.028 48.1263C109.663 48.327 109.404 48.5217 109.253 48.7103C109.106 48.8928 109.034 49.0996 109.034 49.3307C109.034 49.5984 109.153 49.8143 109.389 49.9786C109.627 50.1428 109.94 50.225 110.329 50.225ZM123.555 47.7978H124.677V50.3436C124.349 50.6052 123.965 50.8059 123.528 50.9458C123.09 51.0857 122.639 51.1557 122.177 51.1557C121.526 51.1557 120.939 51.0158 120.416 50.7359C119.893 50.4501 119.483 50.0577 119.185 49.5589C118.886 49.06 118.737 48.4974 118.737 47.8708C118.737 47.2442 118.886 46.6816 119.185 46.1827C119.483 45.6839 119.893 45.2946 120.416 45.0148C120.945 44.7289 121.539 44.5859 122.196 44.5859C122.731 44.5859 123.217 44.6742 123.656 44.8505C124.093 45.0269 124.461 45.2855 124.759 45.6261L124.011 46.3561C123.524 45.8695 122.937 45.6261 122.25 45.6261C121.8 45.6261 121.399 45.7204 121.045 45.909C120.699 46.0976 120.425 46.3622 120.224 46.7028C120.03 47.0435 119.932 47.4328 119.932 47.8708C119.932 48.2966 120.03 48.6799 120.224 49.0205C120.425 49.3611 120.699 49.6288 121.045 49.8235C121.399 50.0181 121.797 50.1155 122.241 50.1155C122.74 50.1155 123.178 50.006 123.555 49.787V47.7978ZM131.333 51.0644L130.029 49.1939C129.973 49.2 129.891 49.203 129.782 49.203H128.34V51.0644H127.154V44.6772H129.782C130.336 44.6772 130.816 44.7684 131.224 44.9509C131.638 45.1334 131.954 45.395 132.173 45.7356C132.392 46.0763 132.501 46.4808 132.501 46.9492C132.501 47.4298 132.383 47.8434 132.146 48.1902C131.914 48.5369 131.58 48.7954 131.142 48.9658L132.61 51.0644H131.333ZM131.306 46.9492C131.306 46.5416 131.172 46.2284 130.904 46.0094C130.636 45.7904 130.245 45.6809 129.727 45.6809H128.34V48.2267H129.727C130.245 48.2267 130.636 48.1172 130.904 47.8982C131.172 47.6731 131.306 47.3568 131.306 46.9492ZM137.724 51.1557C137.074 51.1557 136.487 51.0158 135.964 50.7359C135.441 50.4501 135.03 50.0577 134.732 49.5589C134.434 49.054 134.285 48.4913 134.285 47.8708C134.285 47.2503 134.434 46.6907 134.732 46.1919C135.03 45.687 135.441 45.2946 135.964 45.0148C136.487 44.7289 137.074 44.5859 137.724 44.5859C138.376 44.5859 138.962 44.7289 139.486 45.0148C140.009 45.2946 140.419 45.6839 140.718 46.1827C141.016 46.6816 141.165 47.2442 141.165 47.8708C141.165 48.4974 141.016 49.06 140.718 49.5589C140.419 50.0577 140.009 50.4501 139.486 50.7359C138.962 51.0158 138.376 51.1557 137.724 51.1557ZM137.724 50.1155C138.15 50.1155 138.534 50.0212 138.874 49.8326C139.215 49.638 139.482 49.3703 139.677 49.0296C139.872 48.6829 139.969 48.2966 139.969 47.8708C139.969 47.445 139.872 47.0617 139.677 46.7211C139.482 46.3744 139.215 46.1067 138.874 45.9181C138.534 45.7235 138.15 45.6261 137.724 45.6261C137.299 45.6261 136.916 45.7235 136.575 45.9181C136.234 46.1067 135.966 46.3744 135.772 46.7211C135.577 47.0617 135.48 47.445 135.48 47.8708C135.48 48.2966 135.577 48.6829 135.772 49.0296C135.966 49.3703 136.234 49.638 136.575 49.8326C136.916 50.0212 137.299 50.1155 137.724 50.1155ZM146.291 51.1557C145.646 51.1557 145.062 51.0158 144.538 50.7359C144.022 50.4501 143.614 50.0577 143.316 49.5589C143.024 49.06 142.878 48.4974 142.878 47.8708C142.878 47.2442 143.027 46.6816 143.325 46.1827C143.623 45.6839 144.031 45.2946 144.548 45.0148C145.071 44.7289 145.655 44.5859 146.3 44.5859C146.823 44.5859 147.3 44.6772 147.732 44.8597C148.164 45.0422 148.529 45.3068 148.827 45.6535L148.061 46.3744C147.599 45.8755 147.03 45.6261 146.355 45.6261C145.916 45.6261 145.525 45.7235 145.177 45.9181C144.831 46.1067 144.56 46.3713 144.365 46.712C144.171 47.0526 144.074 47.4389 144.074 47.8708C144.074 48.3027 144.171 48.689 144.365 49.0296C144.56 49.3703 144.831 49.638 145.177 49.8326C145.525 50.0212 145.916 50.1155 146.355 50.1155C147.03 50.1155 147.599 49.863 148.061 49.3581L148.827 50.0881C148.529 50.4348 148.162 50.6994 147.724 50.8819C147.292 51.0644 146.814 51.1557 146.291 51.1557ZM155.667 50.0698V51.0644H150.876V44.6772H155.539V45.6718H152.062V47.3324H155.146V48.3088H152.062V50.0698H155.667ZM162.08 51.0644L160.776 49.1939C160.721 49.2 160.639 49.203 160.529 49.203H159.088V51.0644H157.901V44.6772H160.529C161.083 44.6772 161.564 44.7684 161.972 44.9509C162.385 45.1334 162.701 45.395 162.92 45.7356C163.139 46.0763 163.249 46.4808 163.249 46.9492C163.249 47.4298 163.13 47.8434 162.893 48.1902C162.661 48.5369 162.327 48.7954 161.889 48.9658L163.358 51.0644H162.08ZM162.054 46.9492C162.054 46.5416 161.92 46.2284 161.652 46.0094C161.384 45.7904 160.992 45.6809 160.475 45.6809H159.088V48.2267H160.475C160.992 48.2267 161.384 48.1172 161.652 47.8982C161.92 47.6731 162.054 47.3568 162.054 46.9492ZM168.154 48.8106V51.0644H166.968V48.8289L164.459 44.6772H165.728L167.598 47.7887L169.487 44.6772H170.655L168.154 48.8106Z" fill="#253D4E"/>
<path d="M98.4826 5.98535C99.2259 5.98535 99.8303 6.23314 100.295 6.72872C100.76 7.22429 100.991 7.84376 100.991 8.58712V35.6734C100.991 36.4787 100.713 37.1602 100.155 37.7177C99.6286 38.2442 98.9631 38.5075 98.1578 38.5075C97.7551 38.5075 97.3365 38.4456 96.9029 38.3217C96.5003 38.1668 96.1905 37.9655 95.9737 37.7177L77.7148 14.534L78.9228 13.7907V35.9057C78.9228 36.6491 78.675 37.2686 78.1794 37.7641C77.7148 38.2597 77.0954 38.5075 76.321 38.5075C75.5777 38.5075 74.9737 38.2597 74.5091 37.7641C74.0445 37.2686 73.8122 36.6491 73.8122 35.9057V8.81942C73.8122 8.01411 74.0755 7.34818 74.602 6.82164C75.1595 6.26411 75.8409 5.98535 76.6462 5.98535C77.0799 5.98535 77.529 6.07827 77.9936 6.26411C78.4582 6.41898 78.7989 6.66677 79.0157 7.00748L96.7171 29.5871L95.9268 30.1447V8.58712C95.9268 7.84376 96.1595 7.22429 96.6241 6.72872C97.0887 6.23314 97.7082 5.98535 98.4826 5.98535ZM118.969 38.9721C116.337 38.9721 114.045 38.4301 112.093 37.346C110.173 36.231 108.686 34.7287 107.633 32.8394C106.611 30.95 106.1 28.8128 106.1 26.4279C106.1 23.6402 106.657 21.2708 107.772 19.3194C108.918 17.3371 110.405 15.8194 112.232 14.7663C114.06 13.7132 115.996 13.1867 118.04 13.1867C119.62 13.1867 121.107 13.5119 122.5 14.1624C123.925 14.8128 125.179 15.711 126.263 16.857C127.347 17.9721 128.2 19.273 128.819 20.7597C129.469 22.2464 129.794 23.8261 129.794 25.4986C129.763 26.242 129.469 26.846 128.912 27.3106C128.354 27.7752 127.704 28.0075 126.961 28.0075H109.213L107.819 23.3615H124.869L123.847 24.2907V23.0363C123.785 22.138 123.461 21.3327 122.872 20.6203C122.315 19.9079 121.602 19.3504 120.735 18.9478C119.899 18.5141 119 18.2973 118.04 18.2973C117.111 18.2973 116.244 18.4212 115.438 18.669C114.633 18.9168 113.936 19.3349 113.347 19.9234C112.759 20.5119 112.294 21.3017 111.954 22.2929C111.613 23.284 111.443 24.5385 111.443 26.0562C111.443 27.7287 111.784 29.1535 112.465 30.3305C113.177 31.4765 114.076 32.3593 115.16 32.9787C116.275 33.5672 117.452 33.8615 118.691 33.8615C119.837 33.8615 120.75 33.7686 121.431 33.5827C122.113 33.3969 122.655 33.1801 123.058 32.9323C123.492 32.6535 123.878 32.4212 124.219 32.2354C124.777 31.9566 125.303 31.8172 125.799 31.8172C126.48 31.8172 127.038 32.0495 127.471 32.5141C127.936 32.9787 128.169 33.5208 128.169 34.1402C128.169 34.9765 127.735 35.7354 126.868 36.4168C126.062 37.0982 124.931 37.7022 123.476 38.2287C122.02 38.7243 120.518 38.9721 118.969 38.9721ZM132.985 34.6513C132.676 34.2177 132.536 33.6602 132.567 32.9787C132.598 32.2973 133 31.7088 133.775 31.2133C134.27 30.9035 134.797 30.7796 135.354 30.8416C135.912 30.8725 136.454 31.1513 136.981 31.6779C137.879 32.5761 138.823 33.273 139.815 33.7686C140.806 34.2641 142.045 34.5119 143.531 34.5119C143.996 34.481 144.507 34.419 145.065 34.3261C145.623 34.2022 146.102 33.9544 146.505 33.5827C146.938 33.1801 147.155 32.5761 147.155 31.7708C147.155 31.0894 146.923 30.5473 146.459 30.1447C145.994 29.742 145.375 29.4013 144.6 29.1225C143.857 28.8438 143.021 28.5805 142.092 28.3327C141.131 28.054 140.14 27.7442 139.118 27.4035C138.127 27.0628 137.213 26.6292 136.377 26.1026C135.54 25.5451 134.859 24.8172 134.332 23.919C133.806 23.0208 133.543 21.8902 133.543 20.5274C133.543 18.9787 133.976 17.6624 134.844 16.5783C135.711 15.4942 136.826 14.6579 138.189 14.0694C139.583 13.4809 141.038 13.1867 142.556 13.1867C143.516 13.1867 144.523 13.3106 145.576 13.5584C146.629 13.7752 147.636 14.1469 148.596 14.6734C149.556 15.169 150.361 15.8349 151.012 16.6712C151.353 17.1358 151.554 17.6933 151.615 18.3438C151.677 18.9942 151.384 19.5827 150.733 20.1093C150.269 20.4809 149.726 20.6513 149.107 20.6203C148.487 20.5584 147.977 20.3416 147.574 19.9699C147.047 19.2885 146.335 18.7464 145.437 18.3438C144.569 17.9411 143.562 17.7398 142.416 17.7398C141.952 17.7398 141.441 17.8017 140.884 17.9256C140.357 18.0185 139.892 18.2509 139.49 18.6225C139.087 18.9632 138.885 19.5208 138.885 20.2951C138.885 21.0075 139.118 21.5805 139.583 22.0141C140.047 22.4168 140.667 22.7575 141.441 23.0363C142.246 23.284 143.098 23.5318 143.996 23.7796C144.925 24.0274 145.87 24.3217 146.83 24.6624C147.791 25.0031 148.673 25.4522 149.478 26.0097C150.284 26.5672 150.934 27.2951 151.43 28.1933C151.925 29.0606 152.173 30.1756 152.173 31.5385C152.173 33.1181 151.708 34.4655 150.779 35.5805C149.85 36.6956 148.689 37.5473 147.295 38.1358C145.901 38.6933 144.477 38.9721 143.021 38.9721C141.193 38.9721 139.366 38.6624 137.538 38.0429C135.711 37.3925 134.193 36.2619 132.985 34.6513ZM157.099 14.1159H168.11C168.853 14.1159 169.473 14.3637 169.969 14.8593C170.464 15.3548 170.712 15.9743 170.712 16.7177C170.712 17.4301 170.464 18.034 169.969 18.5296C169.473 18.9942 168.853 19.2265 168.11 19.2265H157.099C156.356 19.2265 155.737 18.9787 155.241 18.4832C154.745 17.9876 154.498 17.3681 154.498 16.6247C154.498 15.9124 154.745 15.3239 155.241 14.8593C155.737 14.3637 156.356 14.1159 157.099 14.1159ZM162.07 8.30836C162.876 8.30836 163.526 8.58712 164.022 9.14465C164.548 9.6712 164.812 10.3371 164.812 11.1424V31.8172C164.812 32.2509 164.889 32.6071 165.044 32.8858C165.23 33.1646 165.462 33.3659 165.741 33.4898C166.051 33.6137 166.376 33.6756 166.716 33.6756C167.088 33.6756 167.429 33.6137 167.738 33.4898C168.048 33.3349 168.405 33.2575 168.807 33.2575C169.241 33.2575 169.628 33.4588 169.969 33.8615C170.34 34.2641 170.526 34.8217 170.526 35.5341C170.526 36.4013 170.046 37.1137 169.086 37.6712C168.157 38.2287 167.15 38.5075 166.066 38.5075C165.415 38.5075 164.688 38.461 163.883 38.3681C163.108 38.2442 162.365 37.981 161.653 37.5783C160.971 37.1447 160.398 36.4942 159.933 35.627C159.468 34.7597 159.237 33.5672 159.237 32.0495V11.1424C159.237 10.3371 159.499 9.6712 160.026 9.14465C160.584 8.58712 161.265 8.30836 162.07 8.30836Z" fill="#3BB77E"/>
</g>
</g>
</g>
<defs>
<clipPath id="clip0_16_2619">
<rect width="180" height="55.25" fill="white"/>
</clipPath>
<clipPath id="clip1_16_2619">
<rect width="180" height="55.25" fill="white"/>
</clipPath>
<clipPath id="clip2_16_2619">
<rect width="179.981" height="55.25" fill="white" transform="translate(0.00947571)"/>
</clipPath>
</defs>
</svg>
